<?xml version="1.0" encoding="utf-8"?>
<!-- Generator: Adobe Illustrator 18.1.0, SVG Export Plug-In . SVG Version: 6.00 Build 0)  -->
<!DOCTYPE svg PUBLIC "-//W3C//DTD SVG 1.1//EN" "http://www.w3.org/Graphics/SVG/1.1/DTD/svg11.dtd">
<svg version="1.1" id="Layer_1" xmlns="http://www.w3.org/2000/svg" xmlns:xlink="http://www.w3.org/1999/xlink" x="0px" y="0px"
	 viewBox="0 0 500 500" enable-background="new 0 0 500 500" xml:space="preserve">
<polygon fill="#CE7352" points="80.5,319.5 180.8,359.2 310.9,319.1 320.9,269.1 381,249 401,259 431,249.5 421,220 410,220 
	410,209 390.2,189 360,219 360,229 310.8,239.5 221,160 111,160 81,219.2 "/>
<polyline fill="#D1D1D1" points="320.9,269.1 381,249 401,259 431,249.5 421,220 410,220 410,209 390.2,189 360,219 360,229 
	310.8,239.5 "/>
<path fill="#D1D1D1" d="M80.5,319.5"/>
<polygon fill="#CC4F29" points="111,160 81,219.2 80.5,319.5 180.8,359.2 200,259 "/>
<polygon fill="#D1D1D1" points="120,289 150,299 150,279 140,259 120,269 "/>
</svg>
