<?xml version="1.0" encoding="utf-8"?>
<!-- Generator: Adobe Illustrator 18.1.1, SVG Export Plug-In . SVG Version: 6.00 Build 0)  -->
<!DOCTYPE svg PUBLIC "-//W3C//DTD SVG 1.1//EN" "http://www.w3.org/Graphics/SVG/1.1/DTD/svg11.dtd">
<svg version="1.1" xmlns="http://www.w3.org/2000/svg" xmlns:xlink="http://www.w3.org/1999/xlink" x="0px" y="0px"
	 viewBox="0 0 500 500" enable-background="new 0 0 500 500" xml:space="preserve">
<g id="Layer_1">
</g>
<g id="Layer_2">
	<line fill="#FFFFFF" stroke="#000000" stroke-miterlimit="10" x1="60" y1="100.5" x2="140" y2="100.5"/>
	<line fill="#FFFFFF" stroke="#000000" stroke-miterlimit="10" x1="99.5" y1="200" x2="99.5" y2="100"/>
	<polyline fill="#FFFFFF" stroke="#000000" stroke-miterlimit="10" points="230,100.5 159.5,100.5 159.5,200.5 230,200.5 	"/>
	<line fill="#FFFFFF" stroke="#000000" stroke-miterlimit="10" x1="230" y1="150.5" x2="160" y2="150.5"/>
	<polyline fill="#FFFFFF" stroke="#000000" stroke-miterlimit="10" points="259.5,200 259.5,100 339.5,200 339.5,100 	"/>
	<line fill="#FFFFFF" stroke="#000000" stroke-miterlimit="10" x1="60" y1="230.5" x2="140" y2="230.5"/>
	<line fill="#FFFFFF" stroke="#000000" stroke-miterlimit="10" x1="99.5" y1="330" x2="99.5" y2="230"/>
	<polyline fill="#FFFFFF" stroke="#000000" stroke-miterlimit="10" points="260,230 299.5,280 340,230 	"/>
	<line fill="#FFFFFF" stroke="#000000" stroke-miterlimit="10" x1="300" y1="330" x2="299.5" y2="280"/>
	<circle fill="#FFFFFF" stroke="#000000" stroke-miterlimit="10" cx="200" cy="280" r="50"/>
	<path fill="none" stroke="#000000" stroke-miterlimit="10" d="M440,260c-0.5-17,0-30-40-30c-39,0-40.4,13.5-40,30
		c0.5,20,40,20,40,20s40,0.5,40,20c0,15.7,0.5,30-40,30c-39,0-39.5-10-40-30"/>
</g>
</svg>
